<?xml version="1.0" standalone="no"?>
<!DOCTYPE svg PUBLIC "-//W3C//DTD SVG 20010904//EN"
 "http://www.w3.org/TR/2001/REC-SVG-20010904/DTD/svg10.dtd">
<svg version="1.0" xmlns="http://www.w3.org/2000/svg"
 width="72.000000pt" height="72.000000pt" viewBox="0 0 72.000000 72.000000"
 preserveAspectRatio="xMidYMid meet">
<metadata>
Created by potrace 1.14, written by Peter Selinger 2001-2017
</metadata>
<g transform="translate(0.000000,72.000000) scale(0.100000,-0.100000)"
fill="#000000" stroke="none">
<path d="M30 505 l0 -35 273 -1 c149 -1 277 -2 282 -4 6 -1 16 -3 23 -3 8 -1
12 -12 10 -29 l-3 -28 -252 -3 -253 -2 0 -35 0 -35 252 -2 c234 -3 253 -4 256
-21 9 -45 -5 -47 -279 -47 l-259 0 0 85 c0 84 0 85 -25 85 l-25 0 0 -120 0
-120 279 0 c153 0 293 3 310 6 18 4 39 18 48 31 21 31 20 98 -1 122 -15 16
-15 19 -1 31 12 10 15 28 13 69 -3 53 -5 57 -38 73 -31 16 -69 18 -322 18
l-288 0 0 -35z"/>
</g>
</svg>
