<?xml version="1.0" encoding="UTF-8" ?>
<!DOCTYPE svg PUBLIC "-//W3C//DTD SVG 1.1//EN" "http://www.w3.org/Graphics/SVG/1.1/DTD/svg11.dtd">
<svg width="295pt" height="96pt" viewBox="0 0 295 96" version="1.1" xmlns="http://www.w3.org/2000/svg">
<path fill="#fefefe" d=" M 0.00 0.00 L 295.00 0.00 L 295.00 96.00 L 0.00 96.00 L 0.00 0.00 Z" />
<path fill="#221e6d" d=" M 2.50 4.00 C 20.67 3.99 38.85 3.97 57.03 4.00 C 61.00 4.10 66.12 4.82 67.75 9.07 C 69.11 13.23 69.35 19.94 64.12 21.43 C 65.73 22.22 67.89 22.92 68.13 25.01 C 68.82 28.56 68.82 32.58 66.84 35.73 C 64.63 38.80 60.45 38.81 57.05 39.01 C 38.87 39.02 20.69 39.01 2.51 39.02 C 2.50 31.08 2.50 23.15 2.50 15.22 C 4.25 15.23 6.00 15.24 7.76 15.25 C 7.75 20.67 7.77 26.08 7.75 31.49 C 24.79 31.48 41.83 31.52 58.88 31.48 C 61.16 31.84 63.09 29.06 61.98 27.06 C 61.56 25.22 59.50 25.26 58.01 25.23 C 42.18 25.26 26.34 25.23 10.50 25.24 C 10.51 22.74 10.51 20.24 10.51 17.74 C 26.67 17.75 42.83 17.81 58.98 17.72 C 61.36 17.91 63.13 15.07 61.87 13.01 C 61.45 11.39 59.31 11.59 58.00 11.48 C 39.50 11.52 21.00 11.50 2.50 11.49 C 2.50 8.99 2.50 6.50 2.50 4.00 Z" />
<path fill="#221e6d" d=" M 85.22 4.01 C 107.23 3.97 129.24 4.01 151.25 3.98 C 151.24 6.49 151.24 8.99 151.25 11.50 C 131.00 11.51 110.75 11.49 90.50 11.51 C 90.49 18.17 90.52 24.84 90.49 31.50 C 110.74 31.48 130.99 31.51 151.24 31.49 C 151.24 34.00 151.24 36.51 151.24 39.02 C 129.24 38.99 107.24 39.05 85.23 38.99 C 85.23 27.33 85.25 15.67 85.22 4.01 Z" />
<path fill="#221e6d" d=" M 167.75 3.99 C 181.00 3.98 194.24 3.99 207.49 3.99 C 207.49 6.50 207.49 9.00 207.51 11.51 C 202.09 11.50 196.67 11.51 191.26 11.49 C 191.22 20.67 191.23 29.84 191.25 39.02 C 189.49 39.02 187.74 39.01 185.99 39.01 C 185.98 29.83 186.01 20.66 185.96 11.48 C 179.90 11.52 173.83 11.49 167.77 11.50 C 167.75 9.00 167.75 6.50 167.75 3.99 Z" />
<path fill="#221e6d" d=" M 224.50 3.99 C 241.03 4.02 257.57 3.94 274.10 4.02 C 281.00 4.07 289.25 8.27 289.79 15.88 C 290.62 22.05 285.52 27.24 279.93 28.80 C 273.33 30.58 266.44 29.39 259.71 29.80 C 270.46 32.88 281.15 36.33 292.09 38.69 C 286.08 39.23 280.04 38.94 274.02 39.04 C 271.33 39.02 268.58 39.21 265.98 38.41 C 255.58 35.49 245.18 32.54 234.77 29.68 C 234.75 27.20 234.75 24.72 234.75 22.25 C 247.49 22.23 260.23 22.27 272.97 22.24 C 276.69 22.09 281.40 21.54 283.43 17.94 C 284.20 15.83 282.39 14.20 280.76 13.22 C 278.13 11.79 275.04 11.53 272.09 11.48 C 256.22 11.51 240.36 11.52 224.49 11.48 C 224.50 8.99 224.51 6.49 224.50 3.99 Z" />
<path fill="#221e6d" d=" M 224.48 15.25 C 226.24 15.24 228.00 15.23 229.76 15.23 C 229.76 23.15 229.75 31.07 229.77 38.99 C 228.00 39.00 226.24 39.01 224.48 39.02 C 224.52 31.10 224.51 23.17 224.48 15.25 Z" />
<path fill="#221e6d" d=" M 93.48 17.99 C 106.66 17.99 119.84 18.00 133.01 17.99 C 133.02 20.49 133.02 22.99 133.03 25.50 C 119.85 25.50 106.68 25.51 93.50 25.49 C 93.50 22.99 93.50 20.49 93.48 17.99 Z" />
<path fill="#221e6d" d=" M 76.11 32.09 C 80.22 31.42 80.67 38.50 77.11 39.69 C 73.63 39.02 73.25 33.75 76.11 32.09 Z" />
<path fill="#221e6d" d=" M 159.73 40.03 C 155.94 38.89 155.49 32.08 159.94 31.99 C 163.16 33.73 162.18 38.05 159.73 40.03 Z" />
<path fill="#221e6d" d=" M 215.32 32.12 C 219.57 31.29 220.02 39.06 215.98 39.67 C 212.88 38.59 212.60 33.77 215.32 32.12 Z" />
<path fill="#221e6d" d=" M 242.82 49.94 C 244.81 49.55 246.81 50.19 248.80 50.38 C 248.80 51.78 248.82 53.17 248.88 54.57 C 248.04 52.89 247.19 50.74 245.04 50.49 C 243.12 50.05 242.17 51.71 241.20 53.01 C 243.59 54.69 246.29 55.86 248.68 57.55 C 250.43 58.98 249.95 61.96 248.02 63.01 C 245.60 64.41 242.79 63.30 240.21 63.12 C 240.21 61.66 240.22 60.21 240.20 58.76 C 240.93 60.24 241.40 62.20 243.21 62.72 C 245.11 63.52 248.68 62.76 247.99 60.07 C 245.85 58.06 242.77 57.43 240.70 55.33 C 238.96 53.42 240.54 50.45 242.82 49.94 Z" />
<path fill="#221e6d" d=" M 44.62 49.93 C 47.95 50.24 51.73 49.28 54.70 51.22 C 56.58 52.84 55.61 55.21 54.02 56.59 C 55.10 57.63 56.11 58.75 57.08 59.89 C 54.80 65.05 48.62 63.17 44.19 63.55 C 44.51 63.22 45.16 62.54 45.49 62.20 C 45.24 58.13 46.25 53.80 44.62 49.93 Z" />
<path fill="#221e6d" d=" M 59.57 49.91 C 60.87 49.98 62.18 50.05 63.49 50.09 C 61.88 51.66 62.23 53.95 62.18 55.98 C 62.30 57.96 61.94 60.22 63.22 61.92 C 65.45 64.07 70.11 63.06 70.60 59.81 C 70.91 56.93 70.72 54.02 70.75 51.12 C 70.34 50.84 69.53 50.28 69.12 50.00 C 73.70 50.30 78.33 49.57 82.87 50.29 C 84.85 50.53 86.42 52.67 85.58 54.61 C 84.80 55.72 83.55 56.37 82.51 57.21 C 84.76 59.90 86.68 63.87 90.81 63.39 C 91.07 59.19 91.00 54.98 90.97 50.78 C 90.41 50.61 89.29 50.28 88.73 50.12 C 92.54 49.95 96.36 49.98 100.19 50.00 C 100.34 51.13 100.49 52.27 100.65 53.41 C 100.07 52.57 99.50 51.73 98.94 50.88 C 96.97 50.81 95.00 50.77 93.03 50.73 C 93.02 52.51 93.02 54.28 93.02 56.06 C 94.69 56.10 96.37 56.13 98.04 56.15 C 98.25 55.54 98.66 54.32 98.86 53.72 C 98.94 54.99 99.02 56.27 99.10 57.54 C 97.10 57.07 95.06 56.87 93.03 56.71 C 93.02 58.70 93.02 60.69 93.05 62.69 C 96.42 63.13 99.83 62.78 101.92 59.80 C 101.43 61.03 100.94 62.26 100.47 63.49 C 95.44 63.42 90.40 63.73 85.39 63.39 C 82.68 62.29 82.16 57.52 78.90 57.86 C 77.26 58.94 78.13 62.47 79.67 63.70 C 78.29 63.63 76.92 63.59 75.54 63.57 C 76.83 59.31 76.08 54.81 76.18 50.43 C 74.74 50.41 73.31 50.41 71.88 50.45 C 71.65 53.84 72.10 57.30 71.42 60.65 C 69.96 64.67 63.68 64.81 61.09 61.91 C 59.33 58.18 60.95 53.80 59.57 49.91 Z" />
<path fill="#221e6d" d=" M 103.13 63.68 C 105.97 59.14 107.59 53.97 110.30 49.35 C 112.68 54.03 113.91 59.32 117.05 63.60 C 115.47 63.57 113.89 63.58 112.32 63.64 C 114.10 62.55 113.21 60.79 112.47 59.33 C 110.80 58.47 108.75 58.94 106.93 58.70 C 106.36 59.91 105.79 61.12 105.22 62.33 C 105.65 62.62 106.52 63.21 106.95 63.51 C 105.68 63.56 104.40 63.62 103.13 63.68 Z" />
<path fill="#221e6d" d=" M 119.40 49.82 C 120.74 49.90 122.09 49.96 123.44 50.01 C 122.57 53.54 122.44 57.29 123.10 60.86 C 124.40 64.06 129.17 63.53 130.86 60.95 C 131.48 57.87 131.16 54.70 131.27 51.58 C 131.01 51.19 130.49 50.42 130.23 50.03 C 131.41 50.00 132.59 49.97 133.78 49.92 C 131.11 52.12 132.69 55.86 132.21 58.82 C 132.54 64.33 124.17 65.51 121.42 61.65 C 119.54 57.94 122.36 53.08 119.40 49.82 Z" />
<path fill="#221e6d" d=" M 141.16 49.98 C 144.78 50.10 148.62 49.53 152.04 50.99 C 156.33 53.12 156.29 59.94 152.20 62.27 C 148.50 64.36 144.05 63.08 140.03 63.72 C 140.55 63.34 141.60 62.58 142.13 62.20 C 142.40 58.65 142.18 55.09 142.28 51.54 C 142.00 51.15 141.44 50.37 141.16 49.98 Z" />
<path fill="#221e6d" d=" M 157.69 56.10 C 157.62 54.03 155.62 51.20 157.60 49.57 C 160.07 50.45 157.86 54.05 157.69 56.10 Z" />
<path fill="#221e6d" d=" M 165.86 50.05 C 169.71 50.05 173.56 49.94 177.41 50.00 C 177.58 50.81 177.91 52.43 178.07 53.24 C 176.50 50.18 173.13 50.72 170.24 50.74 C 170.24 52.50 170.24 54.25 170.25 56.01 C 171.86 56.06 173.48 56.12 175.09 56.17 C 175.48 55.44 175.87 54.72 176.26 53.99 C 176.31 55.58 176.38 57.17 176.53 58.76 C 175.37 56.25 172.48 56.95 170.24 56.75 C 170.25 58.74 170.27 60.73 170.33 62.73 C 173.75 63.17 177.16 62.76 179.24 59.71 C 178.71 60.97 178.19 62.23 177.68 63.50 C 173.72 63.51 169.76 63.50 165.81 63.56 C 166.38 63.43 167.53 63.18 168.10 63.06 C 168.23 58.96 168.51 54.83 168.01 50.76 C 167.47 50.58 166.40 50.23 165.86 50.05 Z" />
<path fill="#221e6d" d=" M 180.57 50.03 C 186.56 49.69 192.54 50.58 198.52 49.98 C 196.29 52.73 197.39 56.61 197.36 59.87 C 197.52 62.79 201.25 63.87 203.49 62.51 C 205.76 61.70 205.77 59.01 205.79 57.00 C 205.62 54.58 206.49 51.64 204.36 49.86 C 209.73 50.58 215.29 49.14 220.54 50.74 C 224.97 52.45 225.55 59.18 221.76 61.88 C 218.03 64.54 213.18 63.06 208.94 63.70 C 209.45 63.47 210.47 63.01 210.99 62.77 C 211.51 58.68 211.17 54.53 211.13 50.41 C 209.71 50.40 208.29 50.42 206.87 50.46 C 206.74 53.58 206.95 56.72 206.62 59.84 C 205.88 64.56 198.84 65.04 196.09 61.92 C 194.25 58.33 196.03 54.05 194.68 50.30 C 194.32 50.53 193.60 50.98 193.23 51.21 C 193.04 51.55 192.66 52.24 192.47 52.59 C 191.15 51.04 189.20 50.69 187.27 50.54 C 187.21 54.51 187.26 58.47 187.22 62.44 C 187.67 62.72 188.55 63.28 188.99 63.56 C 187.39 63.54 185.80 63.54 184.20 63.55 C 184.46 63.20 184.98 62.51 185.24 62.17 C 185.23 58.30 185.24 54.43 185.21 50.56 C 183.05 50.54 181.14 51.25 179.96 53.14 C 180.11 52.36 180.42 50.81 180.57 50.03 Z" />
<path fill="#221e6d" d=" M 224.93 50.05 C 228.76 50.04 232.58 49.94 236.41 50.00 C 236.58 50.81 236.93 52.45 237.10 53.26 C 235.50 50.25 232.17 50.68 229.26 50.74 C 229.25 52.51 229.24 54.27 229.25 56.04 C 230.87 56.08 232.49 56.12 234.12 56.17 C 234.39 55.61 234.94 54.51 235.22 53.96 C 235.29 55.48 235.39 56.99 235.54 58.51 C 234.11 56.32 231.39 56.96 229.16 56.77 C 229.23 58.80 229.31 60.83 229.48 62.86 C 232.80 63.08 236.25 62.72 238.24 59.71 C 237.72 60.97 237.19 62.23 236.68 63.49 C 233.18 63.51 229.68 63.49 226.18 63.60 C 226.45 63.26 226.97 62.57 227.23 62.23 C 227.16 58.43 227.45 54.60 227.01 50.81 C 226.49 50.62 225.45 50.24 224.93 50.05 Z" />
<path fill="#fefefe" d=" M 47.50 50.71 C 49.08 50.99 51.06 50.47 52.34 51.68 C 53.73 52.61 52.83 54.48 52.89 55.82 C 51.10 56.01 49.31 56.13 47.51 56.22 C 47.50 54.38 47.49 52.55 47.50 50.71 Z" />
<path fill="#fefefe" d=" M 78.25 50.64 C 80.01 51.04 82.99 50.49 83.17 53.05 C 83.72 55.33 80.90 57.08 78.96 56.02 C 77.89 54.40 78.25 52.46 78.25 50.64 Z" />
<path fill="#fefefe" d=" M 144.26 50.82 C 146.43 50.89 148.92 50.55 150.69 52.10 C 153.79 54.51 153.44 60.06 149.92 61.91 C 148.23 62.94 146.20 62.67 144.32 62.74 C 144.21 58.76 144.23 54.79 144.26 50.82 Z" />
<path fill="#fefefe" d=" M 213.25 50.81 C 215.43 50.87 217.94 50.54 219.72 52.11 C 222.78 54.54 222.41 60.13 218.87 61.94 C 217.19 62.94 215.18 62.67 213.32 62.75 C 213.19 58.77 213.25 54.79 213.25 50.81 Z" />
<path fill="#fefefe" d=" M 109.56 52.81 C 110.37 54.58 111.16 56.36 111.95 58.14 C 110.76 58.10 108.37 58.02 107.18 57.98 C 108.00 56.27 108.78 54.54 109.56 52.81 Z" />
<path fill="#fefefe" d=" M 47.50 56.71 C 50.04 56.88 54.74 57.12 53.94 60.88 C 52.60 63.17 49.78 62.66 47.56 62.77 C 47.51 60.75 47.50 58.73 47.50 56.71 Z" />
<path fill="#221e6d" d=" M 34.43 75.50 C 37.11 73.86 40.27 74.73 43.15 75.18 C 43.40 76.58 43.66 77.98 43.95 79.37 C 42.52 77.81 41.39 75.34 38.99 75.24 C 32.62 74.54 31.30 85.63 37.09 87.25 C 39.88 88.41 42.24 86.12 44.47 84.82 C 42.40 87.83 38.56 89.53 35.06 88.00 C 29.88 86.09 29.65 78.01 34.43 75.50 Z" />
<path fill="#221e6d" d=" M 58.18 74.26 C 59.82 73.76 60.37 74.32 59.82 75.94 C 58.18 76.44 57.63 75.87 58.18 74.26 Z" />
<path fill="#221e6d" d=" M 73.15 74.28 C 74.78 73.72 75.34 74.26 74.85 75.90 C 73.22 76.45 72.65 75.91 73.15 74.28 Z" />
<path fill="#221e6d" d=" M 147.28 74.36 C 149.38 73.51 152.27 73.98 152.40 76.70 C 150.76 75.96 149.16 75.13 147.53 74.39 C 147.37 75.81 147.28 77.24 147.26 78.67 C 148.04 78.90 149.58 79.36 150.36 79.59 C 149.57 79.69 148.01 79.88 147.23 79.98 C 147.24 82.48 147.24 84.97 147.33 87.47 C 147.94 87.73 149.14 88.26 149.75 88.52 C 147.56 88.88 145.34 88.55 143.15 88.48 C 143.74 88.16 144.92 87.52 145.51 87.20 C 145.50 84.78 145.49 82.35 145.49 79.92 C 144.80 79.84 143.43 79.69 142.75 79.61 C 145.81 79.44 145.58 76.10 147.28 74.36 Z" />
<path fill="#221e6d" d=" M 179.32 74.32 C 180.29 72.77 182.77 74.50 181.67 75.95 C 180.69 77.47 178.20 75.79 179.32 74.32 Z" />
<path fill="#221e6d" d=" M 229.29 74.27 C 229.78 74.21 230.76 74.10 231.25 74.04 C 231.25 78.81 231.11 83.59 231.44 88.36 C 230.88 88.34 229.77 88.30 229.21 88.28 C 229.66 83.63 229.57 78.94 229.29 74.27 Z" />
<path fill="#221e6d" d=" M 235.52 74.19 C 236.02 74.16 237.02 74.11 237.53 74.08 C 237.47 78.51 237.51 82.94 237.48 87.36 C 237.84 87.61 238.56 88.09 238.92 88.33 C 237.32 88.32 235.72 88.33 234.13 88.36 C 234.55 88.10 235.37 87.58 235.79 87.32 C 235.71 82.94 235.88 78.56 235.52 74.19 Z" />
<path fill="#221e6d" d=" M 63.61 82.43 C 62.47 78.77 67.06 78.35 69.51 79.11 C 69.57 79.85 69.69 81.34 69.75 82.08 C 68.61 80.32 66.90 78.61 64.67 79.93 C 64.85 83.40 71.61 82.89 70.04 86.92 C 68.47 89.07 65.76 88.39 63.55 88.01 C 63.47 87.30 63.31 85.89 63.23 85.18 C 64.70 87.22 67.04 88.59 69.45 86.93 C 67.83 85.02 65.47 84.04 63.61 82.43 Z" />
<path fill="#221e6d" d=" M 81.60 79.47 C 83.32 78.97 85.93 77.94 86.78 80.32 C 87.21 82.80 87.00 85.34 87.10 87.85 C 87.54 88.00 88.44 88.30 88.88 88.45 C 87.48 88.40 86.08 88.33 84.67 88.35 C 85.38 85.75 85.27 83.05 85.06 80.39 C 84.19 80.16 82.46 79.70 81.60 79.47 Z" />
<path fill="#221e6d" d=" M 92.91 78.89 C 95.56 77.95 97.09 80.57 97.95 82.64 C 95.41 82.76 92.86 82.80 90.32 82.86 C 91.01 85.14 92.64 86.72 95.04 87.05 C 96.08 86.11 97.12 85.18 98.18 84.26 C 97.01 86.13 95.89 88.89 93.19 88.52 C 88.12 88.21 87.79 79.48 92.91 78.89 Z" />
<path fill="#221e6d" d=" M 99.48 80.49 C 100.67 78.10 103.52 78.93 105.61 79.08 C 105.57 79.85 105.50 81.39 105.46 82.17 C 105.00 81.28 104.55 80.40 104.10 79.52 C 103.14 79.62 101.21 79.83 100.25 79.93 C 101.47 82.51 104.60 82.93 106.30 85.02 C 106.63 88.81 102.07 88.79 99.51 88.03 C 99.45 87.12 99.39 86.21 99.32 85.30 C 100.69 86.94 102.95 88.97 104.96 86.92 C 104.33 83.80 98.71 84.29 99.48 80.49 Z" />
<path fill="#221e6d" d=" M 116.65 79.66 C 118.17 79.21 120.14 78.00 121.46 79.55 C 123.73 81.59 123.43 85.33 121.44 87.46 C 119.97 88.87 117.79 88.27 115.99 88.34 C 116.18 89.87 116.38 91.40 116.59 92.92 C 115.58 92.82 114.58 92.81 113.57 92.76 C 115.50 88.42 114.22 83.33 114.22 78.70 C 114.83 78.94 116.04 79.42 116.65 79.66 Z" />
<path fill="#221e6d" d=" M 136.56 78.72 C 140.13 78.21 143.08 82.38 141.29 85.57 C 140.12 89.18 134.36 89.63 132.86 86.06 C 131.13 83.19 133.21 79.02 136.56 78.72 Z" />
<path fill="#221e6d" d=" M 154.66 78.86 C 157.29 78.04 158.97 80.49 159.62 82.68 C 157.12 82.77 154.63 82.79 152.13 82.85 C 152.77 85.18 154.39 86.81 156.86 87.00 C 157.52 86.44 158.86 85.32 159.52 84.76 C 158.64 86.91 156.73 89.39 154.08 88.34 C 149.70 87.05 149.95 79.46 154.66 78.86 Z" />
<path fill="#221e6d" d=" M 161.11 80.17 C 162.51 78.21 165.00 78.87 166.99 79.03 C 166.97 80.01 166.95 80.98 166.94 81.96 C 166.14 79.82 163.23 78.18 161.98 80.91 C 164.20 82.47 166.70 83.70 168.44 85.85 C 166.87 88.65 163.81 88.74 161.01 88.19 C 160.99 87.42 160.96 85.89 160.94 85.12 C 162.18 87.11 164.04 88.18 166.45 87.58 C 166.51 83.70 159.70 84.39 161.11 80.17 Z" />
<path fill="#221e6d" d=" M 171.10 79.01 C 172.61 78.68 174.16 78.91 175.68 78.99 C 175.77 79.73 175.95 81.22 176.05 81.97 C 174.85 79.80 172.81 79.13 170.43 79.86 C 171.46 82.91 176.19 82.73 176.54 85.99 C 175.85 89.07 172.07 88.45 169.72 88.26 C 169.68 87.21 169.64 86.15 169.59 85.11 C 170.92 86.70 172.88 89.05 174.98 87.08 C 175.55 84.95 172.52 84.70 171.34 83.57 C 169.21 82.97 169.25 79.94 171.10 79.01 Z" />
<path fill="#221e6d" d=" M 188.55 78.82 C 192.27 77.93 195.46 82.45 193.49 85.73 C 192.26 88.99 187.23 89.57 185.38 86.58 C 183.31 83.80 185.06 79.28 188.55 78.82 Z" />
<path fill="#221e6d" d=" M 199.21 79.58 C 200.82 78.96 202.84 78.16 204.15 79.84 C 204.71 82.51 204.36 85.29 204.79 87.98 C 205.44 88.01 206.75 88.06 207.40 88.09 C 207.48 85.12 209.24 80.43 205.83 78.85 C 208.36 79.50 210.92 79.33 213.44 78.86 C 216.88 80.01 215.05 84.67 215.49 87.37 C 215.84 87.62 216.55 88.11 216.91 88.35 C 215.35 88.35 213.79 88.37 212.24 88.48 C 215.12 86.67 213.31 82.66 213.39 79.86 C 212.11 80.11 210.83 80.36 209.56 80.63 C 209.51 82.86 209.49 85.09 209.46 87.32 C 209.83 87.60 210.56 88.14 210.93 88.41 C 207.77 88.24 204.59 88.15 201.43 88.50 C 203.95 86.40 202.42 82.66 202.39 79.85 C 201.10 80.10 199.82 80.37 198.55 80.65 C 198.52 82.87 198.50 85.10 198.47 87.33 C 198.82 87.57 199.51 88.05 199.86 88.30 C 198.33 88.34 196.80 88.40 195.28 88.53 C 197.51 87.05 196.67 84.15 196.77 81.90 C 196.88 80.46 196.28 79.41 194.98 78.74 C 196.39 79.02 197.80 79.30 199.21 79.58 Z" />
<path fill="#221e6d" d=" M 221.62 78.87 C 224.24 78.00 225.83 80.51 226.83 82.50 C 224.25 82.75 221.66 82.80 219.07 82.91 C 219.93 84.54 220.74 86.93 223.04 86.81 C 224.26 86.35 225.45 85.83 226.63 85.26 C 225.37 86.69 224.24 88.84 221.98 88.55 C 216.90 88.19 216.53 79.54 221.62 78.87 Z" />
<path fill="#221e6d" d=" M 243.96 78.95 C 246.61 77.83 248.44 80.49 249.24 82.64 C 246.69 82.76 244.14 82.79 241.60 82.86 C 242.41 84.33 242.97 86.63 245.05 86.71 C 246.73 87.06 247.99 85.44 249.45 84.90 C 248.07 86.50 246.68 89.00 244.16 88.48 C 239.41 87.90 239.16 79.68 243.96 78.95 Z" />
<path fill="#221e6d" d=" M 251.04 80.06 C 252.38 78.20 254.83 78.95 256.73 79.00 C 256.76 79.79 256.82 81.37 256.86 82.16 C 256.28 81.22 255.70 80.28 255.13 79.34 C 254.29 79.53 252.62 79.91 251.79 80.10 C 252.46 83.05 256.67 82.66 257.58 85.44 C 257.53 89.59 249.63 89.69 250.43 85.13 C 251.87 86.67 253.83 89.00 256.00 87.07 C 256.20 84.46 252.41 84.15 250.74 82.80 C 250.81 81.88 250.84 80.96 251.04 80.06 Z" />
<path fill="#221e6d" d=" M 46.48 78.95 C 46.98 78.96 47.99 79.00 48.50 79.02 C 48.50 81.75 48.52 84.48 48.70 87.21 C 50.03 87.08 51.35 86.94 52.67 86.78 C 52.80 84.16 52.77 81.54 52.43 78.94 C 52.95 78.96 53.99 79.01 54.51 79.03 C 54.64 81.99 53.97 85.17 55.36 87.92 C 54.40 88.16 53.44 88.41 52.48 88.67 C 51.98 88.38 51.48 88.10 50.98 87.82 C 49.66 88.78 47.56 88.72 47.03 86.93 C 46.57 84.30 46.78 81.60 46.48 78.95 Z" />
<path fill="#221e6d" d=" M 57.19 79.29 C 57.90 79.15 59.30 78.87 60.00 78.73 C 60.00 81.79 60.00 84.86 60.10 87.92 C 60.56 88.03 61.47 88.25 61.92 88.36 C 60.51 88.35 59.10 88.36 57.69 88.39 C 58.28 85.83 58.30 83.21 58.31 80.60 C 58.03 80.27 57.47 79.61 57.19 79.29 Z" />
<path fill="#221e6d" d=" M 72.20 79.28 C 72.90 79.14 74.30 78.87 75.00 78.74 C 74.99 81.94 74.95 85.15 75.31 88.34 C 74.43 88.37 73.56 88.42 72.69 88.47 C 73.25 85.90 73.28 83.26 73.29 80.64 C 73.02 80.30 72.47 79.62 72.20 79.28 Z" />
<path fill="#221e6d" d=" M 78.18 79.26 C 78.92 79.11 80.40 78.81 81.14 78.66 C 81.29 81.62 80.78 84.59 81.19 87.53 C 81.58 87.76 82.37 88.23 82.77 88.46 C 81.41 88.37 80.04 88.36 78.68 88.37 C 79.26 85.84 79.28 83.24 79.30 80.66 C 79.02 80.31 78.46 79.61 78.18 79.26 Z" />
<path fill="#221e6d" d=" M 123.98 78.85 C 126.24 79.34 128.55 79.31 130.84 79.10 C 130.98 79.60 131.27 80.61 131.42 81.11 C 130.49 80.88 128.63 80.44 127.70 80.21 C 127.58 82.52 127.49 84.83 127.45 87.14 C 127.80 87.43 128.48 88.02 128.83 88.31 C 127.24 88.31 125.65 88.33 124.07 88.38 C 124.50 88.11 125.38 87.57 125.82 87.30 C 125.30 84.54 127.02 80.45 123.98 78.85 Z" />
<path fill="#221e6d" d=" M 178.06 79.23 C 178.93 79.13 180.66 78.93 181.52 78.83 C 181.77 82.00 180.63 85.64 182.55 88.43 C 181.18 88.38 179.82 88.38 178.46 88.44 C 179.89 87.39 179.83 85.63 179.81 84.04 C 179.66 82.29 180.36 79.75 178.06 79.23 Z" />
<path fill="#fefefe" d=" M 92.02 79.95 C 93.05 79.30 95.66 80.10 94.78 81.59 C 93.54 83.01 89.23 81.44 92.02 79.95 Z" />
<path fill="#fefefe" d=" M 135.16 79.96 C 139.36 77.71 141.59 84.83 138.93 87.37 C 134.83 89.47 132.29 82.44 135.16 79.96 Z" />
<path fill="#fefefe" d=" M 153.16 80.40 C 154.19 79.34 156.47 79.56 156.89 81.11 C 156.52 82.76 151.96 82.36 153.16 80.40 Z" />
<path fill="#fefefe" d=" M 187.20 80.07 C 191.80 77.12 194.56 86.59 190.04 87.79 C 186.37 87.91 185.14 82.53 187.20 80.07 Z" />
<path fill="#fefefe" d=" M 220.16 80.39 C 221.19 79.34 223.46 79.59 223.89 81.12 C 223.52 82.78 218.95 82.35 220.16 80.39 Z" />
<path fill="#fefefe" d=" M 242.12 81.15 C 242.51 79.18 246.95 79.45 245.99 81.61 C 244.91 82.17 242.66 82.57 242.12 81.15 Z" />
<path fill="#fefefe" d=" M 116.38 80.36 C 119.96 79.15 122.32 82.90 120.96 85.99 C 120.66 88.14 117.90 87.53 116.43 87.53 C 116.28 85.14 116.28 82.75 116.38 80.36 Z" />
<path fill="#221e6d" d=" M 260.13 86.27 C 261.53 85.15 263.46 87.48 261.86 88.50 C 260.46 89.61 258.53 87.29 260.13 86.27 Z" />
</svg>
