<svg width="295pt" height="128" viewBox="0 0 295 96" xmlns="http://www.w3.org/2000/svg"><path fill="#fefefe" d="M0 0h295v96H0V0Z"/><path fill="#221e6d" d="M2.5 4c18.17-.01 36.35-.03 54.53 0 3.97.1 9.09.82 10.72 5.07 1.36 4.16 1.6 10.87-3.63 12.36 1.61.79 3.77 1.49 4.01 3.58.69 3.55.69 7.57-1.29 10.72-2.21 3.07-6.39 3.08-9.79 3.28-18.18.01-36.36 0-54.54.01-.01-7.94-.01-15.87-.01-23.8l5.26.03c-.01 5.42.01 10.83-.01 16.24 17.04-.01 34.08.03 51.13-.01 2.28.36 4.21-2.42 3.1-4.42-.42-1.84-2.48-1.8-3.97-1.83-15.83.03-31.67 0-47.51.01.01-2.5.01-5 .01-7.5 16.16.01 32.32.07 48.47-.02 2.38.19 4.15-2.65 2.89-4.71-.42-1.62-2.56-1.42-3.87-1.53-18.5.04-37 .02-55.5.01V4Zm82.72.01c22.01-.04 44.02 0 66.03-.03-.01 2.51-.01 5.01 0 7.52-20.25.01-40.5-.01-60.75.01-.01 6.66.02 13.33-.01 19.99 20.25-.02 40.5.01 60.75-.01v7.53c-22-.03-44 .03-66.01-.03 0-11.66.02-23.32-.01-34.98Zm82.53-.02c13.25-.01 26.49 0 39.74 0 0 2.51 0 5.01.02 7.52-5.42-.01-10.84 0-16.25-.02-.04 9.18-.03 18.35-.01 27.53-1.76 0-3.51-.01-5.26-.01-.01-9.18.02-18.35-.03-27.53-6.06.04-12.13.01-18.19.02-.02-2.5-.02-5-.02-7.51Zm56.75 0c16.53.03 33.07-.05 49.6.03 6.9.05 15.15 4.25 15.69 11.86.83 6.17-4.27 11.36-9.86 12.92-6.6 1.78-13.49.59-20.22 1 10.75 3.08 21.44 6.53 32.38 8.89-6.01.54-12.05.25-18.07.35-2.69-.02-5.44.17-8.04-.63-10.4-2.92-20.8-5.87-31.21-8.73-.02-2.48-.02-4.96-.02-7.43 12.74-.02 25.48.02 38.22-.01 3.72-.15 8.43-.7 10.46-4.3.77-2.11-1.04-3.74-2.67-4.72-2.63-1.43-5.72-1.69-8.67-1.74-15.87.03-31.73.04-47.6 0 .01-2.49.02-4.99.01-7.49Z"/><path fill="#221e6d" d="M224.48 15.25c1.76-.01 3.52-.02 5.28-.02 0 7.92-.01 15.84.01 23.76l-5.29.03c.04-7.92.03-15.85 0-23.77Zm-131 2.74c13.18 0 26.36.01 39.53 0 .01 2.5.01 5 .02 7.51-13.18 0-26.35.01-39.53-.01 0-2.5 0-5-.02-7.5Zm-17.37 14.1c4.11-.67 4.56 6.41 1 7.6-3.48-.67-3.86-5.94-1-7.6Zm83.62 7.94c-3.79-1.14-4.24-7.95.21-8.04 3.22 1.74 2.24 6.06-.21 8.04Zm55.59-7.91c4.25-.83 4.7 6.94.66 7.55-3.1-1.08-3.38-5.9-.66-7.55Zm27.5 17.82c1.99-.39 3.99.25 5.98.44 0 1.4.02 2.79.08 4.19-.84-1.68-1.69-3.83-3.84-4.08-1.92-.44-2.87 1.22-3.84 2.52 2.39 1.68 5.09 2.85 7.48 4.54 1.75 1.43 1.27 4.41-.66 5.46-2.42 1.4-5.23.29-7.81.11 0-1.46.01-2.91-.01-4.36.73 1.48 1.2 3.44 3.01 3.96 1.9.8 5.47.04 4.78-2.65-2.14-2.01-5.22-2.64-7.29-4.74-1.74-1.91-.16-4.88 2.12-5.39Zm-198.2-.01c3.33.31 7.11-.65 10.08 1.29 1.88 1.62.91 3.99-.68 5.37 1.08 1.04 2.09 2.16 3.06 3.3-2.28 5.16-8.46 3.28-12.89 3.66.32-.33.97-1.01 1.3-1.35-.25-4.07.76-8.4-.87-12.27Zm14.95-.02c1.3.07 2.61.14 3.92.18-1.61 1.57-1.26 3.86-1.31 5.89.12 1.98-.24 4.24 1.04 5.94 2.23 2.15 6.89 1.14 7.38-2.11.31-2.88.12-5.79.15-8.69-.41-.28-1.22-.84-1.63-1.12 4.58.3 9.21-.43 13.75.29 1.98.24 3.55 2.38 2.71 4.32-.78 1.11-2.03 1.76-3.07 2.6 2.25 2.69 4.17 6.66 8.3 6.18.26-4.2.19-8.41.16-12.61-.56-.17-1.68-.5-2.24-.66 3.81-.17 7.63-.14 11.46-.12.15 1.13.3 2.27.46 3.41-.58-.84-1.15-1.68-1.71-2.53-1.97-.07-3.94-.11-5.91-.15-.01 1.78-.01 3.55-.01 5.33 1.67.04 3.35.07 5.02.09.21-.61.62-1.83.82-2.43l.24 3.82c-2-.47-4.04-.67-6.07-.83-.01 1.99-.01 3.98.02 5.98 3.37.44 6.78.09 8.87-2.89-.49 1.23-.98 2.46-1.45 3.69-5.03-.07-10.07.24-15.08-.1-2.71-1.1-3.23-5.87-6.49-5.53-1.64 1.08-.77 4.61.77 5.84-1.38-.07-2.75-.11-4.13-.13 1.29-4.26.54-8.76.64-13.14-1.44-.02-2.87-.02-4.3.02-.23 3.39.22 6.85-.46 10.2-1.46 4.02-7.74 4.16-10.33 1.26-1.76-3.73-.14-8.11-1.52-12Zm43.56 13.77c2.84-4.54 4.46-9.71 7.17-14.33 2.38 4.68 3.61 9.97 6.75 14.25a82.81 82.81 0 0 0-4.73.04c1.78-1.09.89-2.85.15-4.31-1.67-.86-3.72-.39-5.54-.63l-1.71 3.63c.43.29 1.3.88 1.73 1.18-1.27.05-2.55.11-3.82.17Zm16.27-13.86c1.34.08 2.69.14 4.04.19-.87 3.53-1 7.28-.34 10.85 1.3 3.2 6.07 2.67 7.76.09.62-3.08.3-6.25.41-9.37-.26-.39-.78-1.16-1.04-1.55 1.18-.03 2.36-.06 3.55-.11-2.67 2.2-1.09 5.94-1.57 8.9.33 5.51-8.04 6.69-10.79 2.83-1.88-3.71.94-8.57-2.02-11.83Zm21.76.16c3.62.12 7.46-.45 10.88 1.01 4.29 2.13 4.25 8.95.16 11.28-3.7 2.09-8.15.81-12.17 1.45.52-.38 1.57-1.14 2.1-1.52.27-3.55.05-7.11.15-10.66l-1.12-1.56Zm16.53 6.12c-.07-2.07-2.07-4.9-.09-6.53 2.47.88.26 4.48.09 6.53Zm8.17-6.05c3.85 0 7.7-.11 11.55-.05.17.81.5 2.43.66 3.24-1.57-3.06-4.94-2.52-7.83-2.5 0 1.76 0 3.51.01 5.27 1.61.05 3.23.11 4.84.16.39-.73.78-1.45 1.17-2.18.05 1.59.12 3.18.27 4.77-1.16-2.51-4.05-1.81-6.29-2.01.01 1.99.03 3.98.09 5.98 3.42.44 6.83.03 8.91-3.02-.53 1.26-1.05 2.52-1.56 3.79-3.96.01-7.92 0-11.87.06.57-.13 1.72-.38 2.29-.5.13-4.1.41-8.23-.09-12.3-.54-.18-1.61-.53-2.15-.71Zm14.71-.02c5.99-.34 11.97.55 17.95-.05-2.23 2.75-1.13 6.63-1.16 9.89.16 2.92 3.89 4 6.13 2.64 2.27-.81 2.28-3.5 2.3-5.51-.17-2.42.7-5.36-1.43-7.14 5.37.72 10.93-.72 16.18.88 4.43 1.71 5.01 8.44 1.22 11.14-3.73 2.66-8.58 1.18-12.82 1.82.51-.23 1.53-.69 2.05-.93.52-4.09.18-8.24.14-12.36-1.42-.01-2.84.01-4.26.05-.13 3.12.08 6.26-.25 9.38-.74 4.72-7.78 5.2-10.53 2.08-1.84-3.59-.06-7.87-1.41-11.62-.36.23-1.08.68-1.45.91-.19.34-.57 1.03-.76 1.38-1.32-1.55-3.27-1.9-5.2-2.05-.06 3.97-.01 7.93-.05 11.9.45.28 1.33.84 1.77 1.12-1.6-.02-3.19-.02-4.79-.01.26-.35.78-1.04 1.04-1.38-.01-3.87 0-7.74-.03-11.61-2.16-.02-4.07.69-5.25 2.58.15-.78.46-2.33.61-3.11Zm44.36.02c3.83-.01 7.65-.11 11.48-.05.17.81.52 2.45.69 3.26-1.6-3.01-4.93-2.58-7.84-2.52-.01 1.77-.02 3.53-.01 5.3 1.62.04 3.24.08 4.87.13.27-.56.82-1.66 1.1-2.21.07 1.52.17 3.03.32 4.55-1.43-2.19-4.15-1.55-6.38-1.74.07 2.03.15 4.06.32 6.09 3.32.22 6.77-.14 8.76-3.15-.52 1.26-1.05 2.52-1.56 3.78-3.5.02-7 0-10.5.11.27-.34.79-1.03 1.05-1.37-.07-3.8.22-7.63-.22-11.42l-2.08-.76Z"/><path fill="#fefefe" d="M47.5 50.71c1.58.28 3.56-.24 4.84.97 1.39.93.49 2.8.55 4.14-1.79.19-3.58.31-5.38.4-.01-1.84-.02-3.67-.01-5.51Zm30.75-.07c1.76.4 4.74-.15 4.92 2.41.55 2.28-2.27 4.03-4.21 2.97-1.07-1.62-.71-3.56-.71-5.38Zm66.01.18c2.17.07 4.66-.27 6.43 1.28 3.1 2.41 2.75 7.96-.77 9.81-1.69 1.03-3.72.76-5.6.83-.11-3.98-.09-7.95-.06-11.92Zm68.99-.01c2.18.06 4.69-.27 6.47 1.3 3.06 2.43 2.69 8.02-.85 9.83-1.68 1-3.69.73-5.55.81-.13-3.98-.07-7.96-.07-11.94Zm-103.69 2c.81 1.77 1.6 3.55 2.39 5.33l-4.77-.16c.82-1.71 1.6-3.44 2.38-5.17Zm-62.06 3.9c2.54.17 7.24.41 6.44 4.17-1.34 2.29-4.16 1.78-6.38 1.89-.05-2.02-.06-4.04-.06-6.06Z"/><path fill="#221e6d" d="M34.43 75.5c2.68-1.64 5.84-.77 8.72-.32.25 1.4.51 2.8.8 4.19-1.43-1.56-2.56-4.03-4.96-4.13-6.37-.7-7.69 10.39-1.9 12.01 2.79 1.16 5.15-1.13 7.38-2.43-2.07 3.01-5.91 4.71-9.41 3.18-5.18-1.91-5.41-9.99-.63-12.5Zm23.75-1.24c1.64-.5 2.19.06 1.64 1.68-1.64.5-2.19-.07-1.64-1.68Zm14.97.02c1.63-.56 2.19-.02 1.7 1.62-1.63.55-2.2.01-1.7-1.62Zm74.13.08c2.1-.85 4.99-.38 5.12 2.34-1.64-.74-3.24-1.57-4.87-2.31-.16 1.42-.25 2.85-.27 4.28.78.23 2.32.69 3.1.92-.79.1-2.35.29-3.13.39.01 2.5.01 4.99.1 7.49.61.26 1.81.79 2.42 1.05-2.19.36-4.41.03-6.6-.04l2.36-1.28c-.01-2.42-.02-4.85-.02-7.28-.69-.08-2.06-.23-2.74-.31 3.06-.17 2.83-3.51 4.53-5.25Zm32.04-.04c.97-1.55 3.45.18 2.35 1.63-.98 1.52-3.47-.16-2.35-1.63Zm49.97-.05c.49-.06 1.47-.17 1.96-.23 0 4.77-.14 9.55.19 14.32l-2.23-.08c.45-4.65.36-9.34.08-14.01Zm6.23-.08c.5-.03 1.5-.08 2.01-.11-.06 4.43-.02 8.86-.05 13.28.36.25 1.08.73 1.44.97-1.6-.01-3.2 0-4.79.03.42-.26 1.24-.78 1.66-1.04-.08-4.38.09-8.76-.27-13.13ZM63.61 82.43c-1.14-3.66 3.45-4.08 5.9-3.32l.24 2.97c-1.14-1.76-2.85-3.47-5.08-2.15.18 3.47 6.94 2.96 5.37 6.99-1.57 2.15-4.28 1.47-6.49 1.09l-.32-2.83c1.47 2.04 3.81 3.41 6.22 1.75-1.62-1.91-3.98-2.89-5.84-4.5Zm17.99-2.96c1.72-.5 4.33-1.53 5.18.85.43 2.48.22 5.02.32 7.53.44.15 1.34.45 1.78.6-1.4-.05-2.8-.12-4.21-.1.71-2.6.6-5.3.39-7.96-.87-.23-2.6-.69-3.46-.92Zm11.31-.58c2.65-.94 4.18 1.68 5.04 3.75-2.54.12-5.09.16-7.63.22.69 2.28 2.32 3.86 4.72 4.19a208.3 208.3 0 0 1 3.14-2.79c-1.17 1.87-2.29 4.63-4.99 4.26-5.07-.31-5.4-9.04-.28-9.63Zm6.57 1.6c1.19-2.39 4.04-1.56 6.13-1.41-.04.77-.11 2.31-.15 3.09-.46-.89-.91-1.77-1.36-2.65-.96.1-2.89.31-3.85.41 1.22 2.58 4.35 3 6.05 5.09.33 3.79-4.23 3.77-6.79 3.01-.06-.91-.12-1.82-.19-2.73 1.37 1.64 3.63 3.67 5.64 1.62-.63-3.12-6.25-2.63-5.48-6.43Zm17.17-.83c1.52-.45 3.49-1.66 4.81-.11 2.27 2.04 1.97 5.78-.02 7.91-1.47 1.41-3.65.81-5.45.88.19 1.53.39 3.06.6 4.58-1.01-.1-2.01-.11-3.02-.16 1.93-4.34.65-9.43.65-14.06l2.43.96Zm19.91-.94c3.57-.51 6.52 3.66 4.73 6.85-1.17 3.61-6.93 4.06-8.43.49-1.73-2.87.35-7.04 3.7-7.34Z"/><path fill="#221e6d" d="M154.66 78.86c2.63-.82 4.31 1.63 4.96 3.82-2.5.09-4.99.11-7.49.17.64 2.33 2.26 3.96 4.73 4.15.66-.56 2-1.68 2.66-2.24-.88 2.15-2.79 4.63-5.44 3.58-4.38-1.29-4.13-8.88.58-9.48Zm6.45 1.31c1.4-1.96 3.89-1.3 5.88-1.14-.02.98-.04 1.95-.05 2.93-.8-2.14-3.71-3.78-4.96-1.05 2.22 1.56 4.72 2.79 6.46 4.94-1.57 2.8-4.63 2.89-7.43 2.34-.02-.77-.05-2.3-.07-3.07 1.24 1.99 3.1 3.06 5.51 2.46.06-3.88-6.75-3.19-5.34-7.41Zm9.99-1.16c1.51-.33 3.06-.1 4.58-.02.09.74.27 2.23.37 2.98-1.2-2.17-3.24-2.84-5.62-2.11 1.03 3.05 5.76 2.87 6.11 6.13-.69 3.08-4.47 2.46-6.82 2.27-.04-1.05-.08-2.11-.13-3.15 1.33 1.59 3.29 3.94 5.39 1.97.57-2.13-2.46-2.38-3.64-3.51-2.13-.6-2.09-3.63-.24-4.56Zm17.45-.19c3.72-.89 6.91 3.63 4.94 6.91-1.23 3.26-6.26 3.84-8.11.85-2.07-2.78-.32-7.3 3.17-7.76Zm10.66.76c1.61-.62 3.63-1.42 4.94.26.56 2.67.21 5.45.64 8.14.65.03 1.96.08 2.61.11.08-2.97 1.84-7.66-1.57-9.24 2.53.65 5.09.48 7.61.01 3.44 1.15 1.61 5.81 2.05 8.51.35.25 1.06.74 1.42.98-1.56 0-3.12.02-4.67.13 2.88-1.81 1.07-5.82 1.15-8.62-1.28.25-2.56.5-3.83.77-.05 2.23-.07 4.46-.1 6.69.37.28 1.1.82 1.47 1.09-3.16-.17-6.34-.26-9.5.09 2.52-2.1.99-5.84.96-8.65-1.29.25-2.57.52-3.84.8-.03 2.22-.05 4.45-.08 6.68.35.24 1.04.72 1.39.97-1.53.04-3.06.1-4.58.23 2.23-1.48 1.39-4.38 1.49-6.63.11-1.44-.49-2.49-1.79-3.16l4.23.84Zm22.41-.71c2.62-.87 4.21 1.64 5.21 3.63-2.58.25-5.17.3-7.76.41.86 1.63 1.67 4.02 3.97 3.9 1.22-.46 2.41-.98 3.59-1.55-1.26 1.43-2.39 3.58-4.65 3.29-5.08-.36-5.45-9.01-.36-9.68Zm22.34.08c2.65-1.12 4.48 1.54 5.28 3.69-2.55.12-5.1.15-7.64.22.81 1.47 1.37 3.77 3.45 3.85 1.68.35 2.94-1.27 4.4-1.81-1.38 1.6-2.77 4.1-5.29 3.58-4.75-.58-5-8.8-.2-9.53Zm7.08 1.11c1.34-1.86 3.79-1.11 5.69-1.06.03.79.09 2.37.13 3.16-.58-.94-1.16-1.88-1.73-2.82-.84.19-2.51.57-3.34.76.67 2.95 4.88 2.56 5.79 5.34-.05 4.15-7.95 4.25-7.15-.31 1.44 1.54 3.4 3.87 5.57 1.94.2-2.61-3.59-2.92-5.26-4.27.07-.92.1-1.84.3-2.74ZM46.48 78.95c.5.01 1.51.05 2.02.07 0 2.73.02 5.46.2 8.19 1.33-.13 2.65-.27 3.97-.43.13-2.62.1-5.24-.24-7.84.52.02 1.56.07 2.08.09.13 2.96-.54 6.14.85 8.89-.96.24-1.92.49-2.88.75-.5-.29-1-.57-1.5-.85-1.32.96-3.42.9-3.95-.89-.46-2.63-.25-5.33-.55-7.98Zm10.71.34c.71-.14 2.11-.42 2.81-.56 0 3.06 0 6.13.1 9.19.46.11 1.37.33 1.82.44-1.41-.01-2.82 0-4.23.03.59-2.56.61-5.18.62-7.79-.28-.33-.84-.99-1.12-1.31Zm15.01-.01c.7-.14 2.1-.41 2.8-.54-.01 3.2-.05 6.41.31 9.6-.88.03-1.75.08-2.62.13.56-2.57.59-5.21.6-7.83-.27-.34-.82-1.02-1.09-1.36Zm5.98-.02 2.96-.6c.15 2.96-.36 5.93.05 8.87.39.23 1.18.7 1.58.93-1.36-.09-2.73-.1-4.09-.09.58-2.53.6-5.13.62-7.71l-1.12-1.4Zm45.8-.41c2.26.49 4.57.46 6.86.25.14.5.43 1.51.58 2.01-.93-.23-2.79-.67-3.72-.9-.12 2.31-.21 4.62-.25 6.93.35.29 1.03.88 1.38 1.17-1.59 0-3.18.02-4.76.07.43-.27 1.31-.81 1.75-1.08-.52-2.76 1.2-6.85-1.84-8.45Zm54.08.38 3.46-.4c.25 3.17-.89 6.81 1.03 9.6a50.7 50.7 0 0 0-4.09.01c1.43-1.05 1.37-2.81 1.35-4.4-.15-1.75.55-4.29-1.75-4.81Z"/><path fill="#fefefe" d="M92.02 79.95c1.03-.65 3.64.15 2.76 1.64-1.24 1.42-5.55-.15-2.76-1.64Zm43.14.01c4.2-2.25 6.43 4.87 3.77 7.41-4.1 2.1-6.64-4.93-3.77-7.41Zm18 .44c1.03-1.06 3.31-.84 3.73.71-.37 1.65-4.93 1.25-3.73-.71Zm34.04-.33c4.6-2.95 7.36 6.52 2.84 7.72-3.67.12-4.9-5.26-2.84-7.72Zm32.96.32c1.03-1.05 3.3-.8 3.73.73-.37 1.66-4.94 1.23-3.73-.73Zm21.96.76c.39-1.97 4.83-1.7 3.87.46-1.08.56-3.33.96-3.87-.46Zm-125.74-.79c3.58-1.21 5.94 2.54 4.58 5.63-.3 2.15-3.06 1.54-4.53 1.54-.15-2.39-.15-4.78-.05-7.17Z"/><path fill="#221e6d" d="M260.13 86.27c1.4-1.12 3.33 1.21 1.73 2.23-1.4 1.11-3.33-1.21-1.73-2.23Z"/></svg>